<?xml version="1.0" encoding="UTF-8"?>
<!--Generator: Apple Native CoreSVG 123-->
<!DOCTYPE svg
PUBLIC "-//W3C//DTD SVG 1.1//EN"
       "http://www.w3.org/Graphics/SVG/1.1/DTD/svg11.dtd">
<svg version="1.1" xmlns="http://www.w3.org/2000/svg" xmlns:xlink="http://www.w3.org/1999/xlink" width="3300" height="2200">
 <!--glyph: "uni1003C6.medium", point size: 100.000000, font version: "Version 15.0d7e11", template writer version: "5"-->
 <g id="Notes">
  <rect height="2200" id="artboard" style="fill:white;opacity:1" width="3300" x="0" y="0"/>
  <line id="" style="fill:none;stroke:black;opacity:1;stroke-width:0.5;" x1="263" x2="3036" y1="292" y2="292"/>
  <text style="stroke:none;fill:black;font-family:-apple-system,&quot;SF Pro Display&quot;,&quot;SF Pro Text&quot;,Helvetica,sans-serif;font-weight:bold;" transform="matrix(1 0 0 1 263 322)">Weight/Scale Variations</text>
  <text style="stroke:none;fill:black;font-family:-apple-system,&quot;SF Pro Display&quot;,&quot;SF Pro Text&quot;,Helvetica,sans-serif;text-anchor:middle;" transform="matrix(1 0 0 1 559.711 322)">Ultralight</text>
  <text style="stroke:none;fill:black;font-family:-apple-system,&quot;SF Pro Display&quot;,&quot;SF Pro Text&quot;,Helvetica,sans-serif;text-anchor:middle;" transform="matrix(1 0 0 1 856.422 322)">Thin</text>
  <text style="stroke:none;fill:black;font-family:-apple-system,&quot;SF Pro Display&quot;,&quot;SF Pro Text&quot;,Helvetica,sans-serif;text-anchor:middle;" transform="matrix(1 0 0 1 1153.13 322)">Light</text>
  <text style="stroke:none;fill:black;font-family:-apple-system,&quot;SF Pro Display&quot;,&quot;SF Pro Text&quot;,Helvetica,sans-serif;text-anchor:middle;" transform="matrix(1 0 0 1 1449.84 322)">Regular</text>
  <text style="stroke:none;fill:black;font-family:-apple-system,&quot;SF Pro Display&quot;,&quot;SF Pro Text&quot;,Helvetica,sans-serif;text-anchor:middle;" transform="matrix(1 0 0 1 1746.56 322)">Medium</text>
  <text style="stroke:none;fill:black;font-family:-apple-system,&quot;SF Pro Display&quot;,&quot;SF Pro Text&quot;,Helvetica,sans-serif;text-anchor:middle;" transform="matrix(1 0 0 1 2043.27 322)">Semibold</text>
  <text style="stroke:none;fill:black;font-family:-apple-system,&quot;SF Pro Display&quot;,&quot;SF Pro Text&quot;,Helvetica,sans-serif;text-anchor:middle;" transform="matrix(1 0 0 1 2339.98 322)">Bold</text>
  <text style="stroke:none;fill:black;font-family:-apple-system,&quot;SF Pro Display&quot;,&quot;SF Pro Text&quot;,Helvetica,sans-serif;text-anchor:middle;" transform="matrix(1 0 0 1 2636.69 322)">Heavy</text>
  <text style="stroke:none;fill:black;font-family:-apple-system,&quot;SF Pro Display&quot;,&quot;SF Pro Text&quot;,Helvetica,sans-serif;text-anchor:middle;" transform="matrix(1 0 0 1 2933.4 322)">Black</text>
  <line id="" style="fill:none;stroke:black;opacity:1;stroke-width:0.5;" x1="263" x2="3036" y1="1903" y2="1903"/>
  <g id="" transform="matrix(1 0 0 1 263 1933)">
   <path d="M 9.24805 0.830078 C 13.5547 0.830078 17.1387 -2.74414 17.1387 -7.05078 C 17.1387 -11.3574 13.5449 -14.9316 9.23828 -14.9316 C 4.94141 -14.9316 1.36719 -11.3574 1.36719 -7.05078 C 1.36719 -2.74414 4.95117 0.830078 9.24805 0.830078 Z M 9.24805 -0.654297 C 5.70312 -0.654297 2.87109 -3.49609 2.87109 -7.05078 C 2.87109 -10.6055 5.69336 -13.4473 9.23828 -13.4473 C 12.793 -13.4473 15.6348 -10.6055 15.6445 -7.05078 C 15.6543 -3.49609 12.8027 -0.654297 9.24805 -0.654297 Z M 9.22852 -3.42773 C 9.69727 -3.42773 9.9707 -3.74023 9.9707 -4.25781 L 9.9707 -6.31836 L 12.1973 -6.31836 C 12.6953 -6.31836 13.0371 -6.57227 13.0371 -7.04102 C 13.0371 -7.51953 12.7148 -7.7832 12.1973 -7.7832 L 9.9707 -7.7832 L 9.9707 -10.0098 C 9.9707 -10.5273 9.69727 -10.8496 9.22852 -10.8496 C 8.75977 -10.8496 8.50586 -10.5078 8.50586 -10.0098 L 8.50586 -7.7832 L 6.29883 -7.7832 C 5.78125 -7.7832 5.44922 -7.51953 5.44922 -7.04102 C 5.44922 -6.57227 5.80078 -6.31836 6.29883 -6.31836 L 8.50586 -6.31836 L 8.50586 -4.25781 C 8.50586 -3.75977 8.75977 -3.42773 9.22852 -3.42773 Z"/>
  </g>
  <g id="" transform="matrix(1 0 0 1 281.506 1933)">
   <path d="M 11.709 2.91016 C 17.1582 2.91016 21.6699 -1.60156 21.6699 -7.05078 C 21.6699 -12.4902 17.1484 -17.0117 11.6992 -17.0117 C 6.25977 -17.0117 1.74805 -12.4902 1.74805 -7.05078 C 1.74805 -1.60156 6.26953 2.91016 11.709 2.91016 Z M 11.709 1.25 C 7.09961 1.25 3.41797 -2.44141 3.41797 -7.05078 C 3.41797 -11.6504 7.08984 -15.3516 11.6992 -15.3516 C 16.3086 -15.3516 20 -11.6504 20.0098 -7.05078 C 20.0195 -2.44141 16.3184 1.25 11.709 1.25 Z M 11.6895 -2.41211 C 12.207 -2.41211 12.5195 -2.77344 12.5195 -3.33984 L 12.5195 -6.23047 L 15.5762 -6.23047 C 16.123 -6.23047 16.5039 -6.51367 16.5039 -7.03125 C 16.5039 -7.55859 16.1426 -7.86133 15.5762 -7.86133 L 12.5195 -7.86133 L 12.5195 -10.9277 C 12.5195 -11.5039 12.207 -11.8555 11.6895 -11.8555 C 11.1719 -11.8555 10.8789 -11.4844 10.8789 -10.9277 L 10.8789 -7.86133 L 7.83203 -7.86133 C 7.26562 -7.86133 6.89453 -7.55859 6.89453 -7.03125 C 6.89453 -6.51367 7.28516 -6.23047 7.83203 -6.23047 L 10.8789 -6.23047 L 10.8789 -3.33984 C 10.8789 -2.79297 11.1719 -2.41211 11.6895 -2.41211 Z"/>
  </g>
  <g id="" transform="matrix(1 0 0 1 304.924 1933)">
   <path d="M 14.9707 5.67383 C 21.9336 5.67383 27.6953 -0.078125 27.6953 -7.04102 C 27.6953 -14.0039 21.9238 -19.7559 14.9609 -19.7559 C 8.00781 -19.7559 2.25586 -14.0039 2.25586 -7.04102 C 2.25586 -0.078125 8.01758 5.67383 14.9707 5.67383 Z M 14.9707 3.85742 C 8.93555 3.85742 4.08203 -1.00586 4.08203 -7.04102 C 4.08203 -13.0762 8.92578 -17.9395 14.9609 -17.9395 C 21.0059 -17.9395 25.8594 -13.0762 25.8691 -7.04102 C 25.8789 -1.00586 21.0156 3.85742 14.9707 3.85742 Z M 14.9512 -1.06445 C 15.5176 -1.06445 15.8691 -1.45508 15.8691 -2.06055 L 15.8691 -6.13281 L 20.1074 -6.13281 C 20.6934 -6.13281 21.1133 -6.46484 21.1133 -7.02148 C 21.1133 -7.59766 20.7227 -7.93945 20.1074 -7.93945 L 15.8691 -7.93945 L 15.8691 -12.1875 C 15.8691 -12.8027 15.5176 -13.1934 14.9512 -13.1934 C 14.3848 -13.1934 14.0625 -12.7832 14.0625 -12.1875 L 14.0625 -7.93945 L 9.83398 -7.93945 C 9.21875 -7.93945 8.80859 -7.59766 8.80859 -7.02148 C 8.80859 -6.46484 9.23828 -6.13281 9.83398 -6.13281 L 14.0625 -6.13281 L 14.0625 -2.06055 C 14.0625 -1.47461 14.3848 -1.06445 14.9512 -1.06445 Z"/>
  </g>
  <text style="stroke:none;fill:black;font-family:-apple-system,&quot;SF Pro Display&quot;,&quot;SF Pro Text&quot;,Helvetica,sans-serif;font-weight:bold;" transform="matrix(1 0 0 1 263 1953)">Design Variations</text>
  <text style="stroke:none;fill:black;font-family:-apple-system,&quot;SF Pro Display&quot;,&quot;SF Pro Text&quot;,Helvetica,sans-serif;" transform="matrix(1 0 0 1 263 1971)">Symbols are supported in up to nine weights and three scales.</text>
  <text style="stroke:none;fill:black;font-family:-apple-system,&quot;SF Pro Display&quot;,&quot;SF Pro Text&quot;,Helvetica,sans-serif;" transform="matrix(1 0 0 1 263 1989)">For optimal layout with text and other symbols, vertically align</text>
  <text style="stroke:none;fill:black;font-family:-apple-system,&quot;SF Pro Display&quot;,&quot;SF Pro Text&quot;,Helvetica,sans-serif;" transform="matrix(1 0 0 1 263 2007)">symbols with the adjacent text.</text>
  <rect height="14" id="" style="fill:#00AEEF;stroke:none;opacity:0.4;" width="3" x="776" y="1919"/>
  <g id="" transform="matrix(1 0 0 1 779 1933)">
   <path d="M 10.5273 0 L 12.373 0 L 7.17773 -14.0918 L 5.43945 -14.0918 L 0.244141 0 L 2.08984 0 L 3.50586 -4.0332 L 9.11133 -4.0332 Z M 6.2793 -11.9531 L 6.33789 -11.9531 L 8.59375 -5.52734 L 4.02344 -5.52734 Z"/>
  </g>
  <rect height="14" id="" style="fill:#00AEEF;stroke:none;opacity:0.4;" width="3" x="791.617" y="1919"/>
  <text style="stroke:none;fill:black;font-family:-apple-system,&quot;SF Pro Display&quot;,&quot;SF Pro Text&quot;,Helvetica,sans-serif;font-weight:bold;" transform="matrix(1 0 0 1 776 1953)">Margins</text>
  <text style="stroke:none;fill:black;font-family:-apple-system,&quot;SF Pro Display&quot;,&quot;SF Pro Text&quot;,Helvetica,sans-serif;" transform="matrix(1 0 0 1 776 1971)">Leading and trailing margins on the left and right side of each symbol</text>
  <text style="stroke:none;fill:black;font-family:-apple-system,&quot;SF Pro Display&quot;,&quot;SF Pro Text&quot;,Helvetica,sans-serif;" transform="matrix(1 0 0 1 776 1989)">can be adjusted by modifying the width of the blue rectangles.</text>
  <text style="stroke:none;fill:black;font-family:-apple-system,&quot;SF Pro Display&quot;,&quot;SF Pro Text&quot;,Helvetica,sans-serif;" transform="matrix(1 0 0 1 776 2007)">Modifications are automatically applied proportionally to all</text>
  <text style="stroke:none;fill:black;font-family:-apple-system,&quot;SF Pro Display&quot;,&quot;SF Pro Text&quot;,Helvetica,sans-serif;" transform="matrix(1 0 0 1 776 2025)">scales and weights.</text>
  <g id="" transform="matrix(1 0 0 1 1289 1933)">
   <path d="M 2.83203 3.11523 L 4.375 4.6582 C 5.22461 5.48828 6.19141 5.41992 7.06055 4.46289 L 17.2754 -6.66016 C 17.7051 -6.36719 18.0957 -6.37695 18.5645 -6.47461 L 19.6094 -6.68945 L 20.3027 -5.99609 L 20.2539 -5.47852 C 20.1855 -4.95117 20.3516 -4.53125 20.8496 -4.0332 L 21.6602 -3.22266 C 22.168 -2.71484 22.8223 -2.68555 23.3008 -3.16406 L 26.5527 -6.41602 C 27.0312 -6.89453 27.0117 -7.54883 26.5039 -8.05664 L 25.6836 -8.87695 C 25.1855 -9.375 24.7754 -9.55078 24.2383 -9.47266 L 23.7109 -9.41406 L 23.0566 -10.0781 L 23.3398 -11.2207 C 23.4863 -11.7871 23.3398 -12.2559 22.7148 -12.8613 L 20.3027 -15.2539 C 16.7578 -18.7793 12.2266 -18.6719 9.11133 -15.5371 C 8.69141 -15.1074 8.64258 -14.5215 8.91602 -14.0918 C 9.15039 -13.7207 9.62891 -13.4961 10.2734 -13.6621 C 11.7871 -14.043 13.3008 -13.9258 14.7852 -12.9199 L 14.1602 -11.3379 C 13.9258 -10.752 13.9453 -10.2734 14.1797 -9.83398 L 3.01758 0.439453 C 2.08008 1.30859 1.97266 2.25586 2.83203 3.11523 Z M 10.6738 -15.1465 C 13.3398 -17.1387 16.6504 -16.8262 19.0527 -14.4141 L 21.6797 -11.8066 C 21.9141 -11.5723 21.9434 -11.3867 21.8848 -11.0938 L 21.5039 -9.53125 L 23.0762 -7.95898 L 24.043 -8.04688 C 24.3262 -8.07617 24.4141 -8.05664 24.6387 -7.83203 L 25.2637 -7.20703 L 22.5098 -4.46289 L 21.8848 -5.07812 C 21.6602 -5.30273 21.6406 -5.40039 21.6699 -5.68359 L 21.7578 -6.64062 L 20.1953 -8.20312 L 18.5742 -7.89062 C 18.291 -7.83203 18.1445 -7.83203 17.9102 -8.07617 L 15.7324 -10.2539 C 15.5078 -10.4883 15.4785 -10.625 15.6055 -10.9473 L 16.5527 -13.2227 C 14.9512 -14.7559 12.8418 -15.6055 10.8008 -14.9512 C 10.7129 -14.9219 10.6445 -14.9414 10.6152 -14.9805 C 10.5859 -15.0293 10.5859 -15.0781 10.6738 -15.1465 Z M 4.10156 2.41211 C 3.61328 1.91406 3.78906 1.61133 4.12109 1.30859 L 15.0781 -8.80859 L 16.3086 -7.57812 L 6.15234 3.34961 C 5.84961 3.68164 5.46875 3.7793 5.06836 3.37891 Z"/>
  </g>
  <text style="stroke:none;fill:black;font-family:-apple-system,&quot;SF Pro Display&quot;,&quot;SF Pro Text&quot;,Helvetica,sans-serif;font-weight:bold;" transform="matrix(1 0 0 1 1289 1953)">Exporting</text>
  <text style="stroke:none;fill:black;font-family:-apple-system,&quot;SF Pro Display&quot;,&quot;SF Pro Text&quot;,Helvetica,sans-serif;" transform="matrix(1 0 0 1 1289 1971)">Symbols should be outlined when exporting to ensure the</text>
  <text style="stroke:none;fill:black;font-family:-apple-system,&quot;SF Pro Display&quot;,&quot;SF Pro Text&quot;,Helvetica,sans-serif;" transform="matrix(1 0 0 1 1289 1989)">design is preserved when submitting to Xcode.</text>
  <text id="template-version" style="stroke:none;fill:black;font-family:-apple-system,&quot;SF Pro Display&quot;,&quot;SF Pro Text&quot;,Helvetica,sans-serif;text-anchor:end;" transform="matrix(1 0 0 1 3036 1933)">Template v.1.0</text>
  <text style="stroke:none;fill:black;font-family:-apple-system,&quot;SF Pro Display&quot;,&quot;SF Pro Text&quot;,Helvetica,sans-serif;text-anchor:end;" transform="matrix(1 0 0 1 3036 1951)">Generated from photo.fill</text>
  <text style="stroke:none;fill:black;font-family:-apple-system,&quot;SF Pro Display&quot;,&quot;SF Pro Text&quot;,Helvetica,sans-serif;text-anchor:end;" transform="matrix(1 0 0 1 3036 1969)">Typeset at 100 points</text>
  <text style="stroke:none;fill:black;font-family:-apple-system,&quot;SF Pro Display&quot;,&quot;SF Pro Text&quot;,Helvetica,sans-serif;" transform="matrix(1 0 0 1 263 726)">Small</text>
  <text style="stroke:none;fill:black;font-family:-apple-system,&quot;SF Pro Display&quot;,&quot;SF Pro Text&quot;,Helvetica,sans-serif;" transform="matrix(1 0 0 1 263 1156)">Medium</text>
  <text style="stroke:none;fill:black;font-family:-apple-system,&quot;SF Pro Display&quot;,&quot;SF Pro Text&quot;,Helvetica,sans-serif;" transform="matrix(1 0 0 1 263 1586)">Large</text>
 </g>
 <g id="Guides">
  <g id="H-reference" style="fill:#27AAE1;stroke:none;" transform="matrix(1 0 0 1 339 696)">
   <path d="M 54.9316 0 L 57.666 0 L 30.5664 -70.459 L 28.0762 -70.459 L 0.976562 0 L 3.66211 0 L 12.9395 -24.4629 L 45.7031 -24.4629 Z M 29.1992 -67.0898 L 29.4434 -67.0898 L 44.8242 -26.709 L 13.8184 -26.709 Z"/>
  </g>
  <line id="Baseline-S" style="fill:none;stroke:#27AAE1;opacity:1;stroke-width:0.577;" x1="263" x2="3036" y1="696" y2="696"/>
  <line id="Capline-S" style="fill:none;stroke:#27AAE1;opacity:1;stroke-width:0.577;" x1="263" x2="3036" y1="625.541" y2="625.541"/>
  <g id="H-reference" style="fill:#27AAE1;stroke:none;" transform="matrix(1 0 0 1 339 1126)">
   <path d="M 54.9316 0 L 57.666 0 L 30.5664 -70.459 L 28.0762 -70.459 L 0.976562 0 L 3.66211 0 L 12.9395 -24.4629 L 45.7031 -24.4629 Z M 29.1992 -67.0898 L 29.4434 -67.0898 L 44.8242 -26.709 L 13.8184 -26.709 Z"/>
  </g>
  <line id="Baseline-M" style="fill:none;stroke:#27AAE1;opacity:1;stroke-width:0.577;" x1="263" x2="3036" y1="1126" y2="1126"/>
  <line id="Capline-M" style="fill:none;stroke:#27AAE1;opacity:1;stroke-width:0.577;" x1="263" x2="3036" y1="1055.54" y2="1055.54"/>
  <g id="H-reference" style="fill:#27AAE1;stroke:none;" transform="matrix(1 0 0 1 339 1556)">
   <path d="M 54.9316 0 L 57.666 0 L 30.5664 -70.459 L 28.0762 -70.459 L 0.976562 0 L 3.66211 0 L 12.9395 -24.4629 L 45.7031 -24.4629 Z M 29.1992 -67.0898 L 29.4434 -67.0898 L 44.8242 -26.709 L 13.8184 -26.709 Z"/>
  </g>
  <line id="Baseline-L" style="fill:none;stroke:#27AAE1;opacity:1;stroke-width:0.577;" x1="263" x2="3036" y1="1556" y2="1556"/>
  <line id="Capline-L" style="fill:none;stroke:#27AAE1;opacity:1;stroke-width:0.577;" x1="263" x2="3036" y1="1485.54" y2="1485.54"/>
  <rect height="119.336" id="left-margin" style="fill:#00AEEF;stroke:none;opacity:0.4;" width="12.4512" x="1379.82" y="1030.79"/>
  <rect height="119.336" id="right-margin" style="fill:#00AEEF;stroke:none;opacity:0.4;" width="12.4512" x="1507.41" y="1030.79"/>
 </g>
 <g id="Symbols">
  <g id="Black-L" transform="matrix(1 0 0 1 2841.51 1556)">
   <path d="M 39.9902 26.5137 L 143.799 26.5137 C 159.082 26.5137 167.725 17.8711 167.725 2.68555 L 167.725 -73.0957 C 167.725 -88.2812 159.082 -96.875 143.799 -96.875 L 39.9902 -96.875 C 24.7559 -96.875 16.0645 -88.2812 16.0645 -73.0957 L 16.0645 2.68555 C 16.0645 17.8711 24.7559 26.5137 39.9902 26.5137 Z M 71.6797 -34.9609 C 62.793 -34.9609 55.4688 -42.2852 55.4688 -51.2207 C 55.4688 -60.0586 62.793 -67.4316 71.6797 -67.4316 C 80.5176 -67.4316 87.8418 -60.0586 87.8418 -51.2207 C 87.8418 -42.2852 80.5176 -34.9609 71.6797 -34.9609 Z M 43.5059 6.29883 C 39.0625 6.29883 36.3281 3.56445 36.3281 -0.927734 L 36.3281 -9.7168 L 48.877 -20.8008 C 51.5625 -23.1445 53.9062 -24.3164 57.0801 -24.3164 C 60.0098 -24.3164 63.0371 -23.0957 65.7227 -20.752 L 77.3926 -10.2539 L 106.201 -36.0352 C 109.033 -38.5254 112.256 -39.6973 115.674 -39.6973 C 118.945 -39.6973 122.363 -38.4766 125.049 -35.9375 L 147.461 -15.1855 L 147.461 -0.976562 C 147.461 3.56445 144.238 6.29883 140.283 6.29883 Z"/>
  </g>
  <g id="Heavy-L" transform="matrix(1 0 0 1 2545.23 1556)">
   <path d="M 38.8184 25.4883 L 144.092 25.4883 C 158.74 25.4883 166.846 17.4316 166.846 2.88086 L 166.846 -73.2422 C 166.846 -87.793 158.74 -95.8496 144.092 -95.8496 L 38.8184 -95.8496 C 24.2188 -95.8496 16.0645 -87.793 16.0645 -73.2422 L 16.0645 2.88086 C 16.0645 17.4316 24.2188 25.4883 38.8184 25.4883 Z M 69.4336 -34.7168 C 60.6445 -34.7168 53.418 -41.9434 53.418 -50.7324 C 53.418 -59.4727 60.6445 -66.7969 69.4336 -66.7969 C 78.1738 -66.7969 85.4004 -59.4727 85.4004 -50.7324 C 85.4004 -41.9434 78.1738 -34.7168 69.4336 -34.7168 Z M 41.5039 8.00781 C 36.5723 8.00781 33.5938 4.98047 33.5938 0.0488281 L 33.5938 -7.51953 L 47.998 -20.166 C 50.6836 -22.5586 53.1738 -23.7305 56.2988 -23.7305 C 59.2285 -23.7305 62.3047 -22.5098 65.0391 -20.0684 L 76.8066 -9.52148 L 105.859 -35.4492 C 108.838 -38.0859 112.109 -39.2578 115.576 -39.2578 C 118.896 -39.2578 122.363 -37.9883 125.146 -35.4004 L 149.316 -13.0371 L 149.316 0.0488281 C 149.316 4.98047 145.947 8.00781 141.406 8.00781 Z"/>
  </g>
  <g id="Bold-L" transform="matrix(1 0 0 1 2249.01 1556)">
   <path d="M 37.5 24.3652 L 144.385 24.3652 C 158.35 24.3652 165.869 16.8945 165.869 3.07617 L 165.869 -73.3887 C 165.869 -87.207 158.35 -94.7266 144.385 -94.7266 L 37.5 -94.7266 C 23.6328 -94.7266 16.0645 -87.2559 16.0645 -73.3887 L 16.0645 3.07617 C 16.0645 16.8945 23.6328 24.3652 37.5 24.3652 Z M 66.9434 -34.4238 C 58.2031 -34.4238 51.123 -41.5039 51.123 -50.2441 C 51.123 -58.8379 58.2031 -66.0645 66.9434 -66.0645 C 75.5371 -66.0645 82.666 -58.8379 82.666 -50.2441 C 82.666 -41.5039 75.5371 -34.4238 66.9434 -34.4238 Z M 39.3066 9.91211 C 33.8379 9.91211 30.5176 6.64062 30.5176 1.12305 L 30.5176 -5.0293 L 46.9727 -19.4336 C 49.7559 -21.8262 52.3926 -23.0469 55.4199 -23.0469 C 58.3984 -23.0469 61.5234 -21.8262 64.2578 -19.3359 L 76.0742 -8.69141 L 105.566 -34.8633 C 108.594 -37.5488 111.963 -38.8184 115.43 -38.8184 C 118.799 -38.8184 122.363 -37.4512 125.293 -34.7656 L 151.416 -10.6934 L 151.416 1.17188 C 151.416 6.64062 147.803 9.91211 142.676 9.91211 Z"/>
  </g>
  <g id="Semibold-L" transform="matrix(1 0 0 1 1952.64 1556)">
   <path d="M 36.6211 23.584 L 144.629 23.584 C 158.057 23.584 165.186 16.5039 165.186 3.17383 L 165.186 -73.5352 C 165.186 -86.8164 158.057 -93.9453 144.629 -93.9453 L 36.6211 -93.9453 C 23.1934 -93.9453 16.0645 -86.8652 16.0645 -73.5352 L 16.0645 3.17383 C 16.0645 16.5527 23.1934 23.584 36.6211 23.584 Z M 65.1855 -34.1797 C 56.543 -34.1797 49.5117 -41.2598 49.5117 -49.8535 C 49.5117 -58.4473 56.543 -65.5762 65.1855 -65.5762 C 73.7305 -65.5762 80.8105 -58.4473 80.8105 -49.8535 C 80.8105 -41.2598 73.7305 -34.1797 65.1855 -34.1797 Z M 37.7441 11.2793 C 31.9336 11.2793 28.418 7.76367 28.418 1.85547 L 28.418 -3.36914 L 46.2891 -18.8965 C 49.0723 -21.3379 51.8555 -22.6074 54.7852 -22.6074 C 57.8125 -22.6074 60.9863 -21.3379 63.7695 -18.7988 L 75.5859 -8.1543 L 105.322 -34.4238 C 108.398 -37.1582 111.865 -38.4766 115.332 -38.4766 C 118.75 -38.4766 122.363 -37.1094 125.342 -34.375 L 152.832 -9.08203 L 152.832 1.9043 C 152.832 7.76367 149.121 11.2793 143.506 11.2793 Z"/>
  </g>
  <g id="Medium-L" transform="matrix(1 0 0 1 1656.2 1556)">
   <path d="M 35.9375 22.998 L 144.775 22.998 C 157.861 22.998 164.648 16.2109 164.648 3.27148 L 164.648 -73.6328 C 164.648 -86.5234 157.861 -93.3105 144.775 -93.3105 L 35.9375 -93.3105 C 22.9004 -93.3105 16.0645 -86.5723 16.0645 -73.6328 L 16.0645 3.27148 C 16.0645 16.2598 22.9004 22.998 35.9375 22.998 Z M 63.8672 -34.0332 C 55.3223 -34.0332 48.291 -41.0156 48.291 -49.6094 C 48.291 -58.1055 55.3223 -65.1855 63.8672 -65.1855 C 72.3633 -65.1855 79.3457 -58.1055 79.3457 -49.6094 C 79.3457 -41.0156 72.3633 -34.0332 63.8672 -34.0332 Z M 36.6211 12.2559 C 30.5176 12.2559 26.8066 8.59375 26.8066 2.44141 L 26.8066 -2.05078 L 45.752 -18.5547 C 48.584 -20.9961 51.4648 -22.2656 54.3457 -22.2656 C 57.373 -22.2656 60.5469 -20.9961 63.3301 -18.4082 L 75.2441 -7.71484 L 105.127 -34.1309 C 108.301 -36.9141 111.768 -38.2324 115.283 -38.2324 C 118.75 -38.2324 122.363 -36.8164 125.391 -34.0332 L 153.906 -7.86133 L 153.906 2.49023 C 153.906 8.59375 150.098 12.2559 144.189 12.2559 Z"/>
  </g>
  <g id="Regular-L" transform="matrix(1 0 0 1 1359.81 1556)">
   <path d="M 35.0586 22.2168 L 144.971 22.2168 C 157.617 22.2168 164.014 15.8691 164.014 3.41797 L 164.014 -73.7305 C 164.014 -86.1816 157.617 -92.5293 144.971 -92.5293 L 35.0586 -92.5293 C 22.4609 -92.5293 16.0645 -86.2305 16.0645 -73.7305 L 16.0645 3.41797 C 16.0645 15.918 22.4609 22.2168 35.0586 22.2168 Z M 62.1582 -33.8379 C 53.6621 -33.8379 46.7285 -40.7715 46.7285 -49.2676 C 46.7285 -57.666 53.6621 -64.6973 62.1582 -64.6973 C 70.6055 -64.6973 77.4902 -57.666 77.4902 -49.2676 C 77.4902 -40.7715 70.6055 -33.8379 62.1582 -33.8379 Z M 35.1074 13.5742 C 28.6133 13.5742 24.707 9.7168 24.707 3.17383 L 24.707 -0.390625 L 45.0684 -18.0176 C 47.9004 -20.5078 50.9277 -21.8262 53.7598 -21.8262 C 56.7871 -21.8262 60.0098 -20.5078 62.8418 -17.9199 L 74.7559 -7.12891 L 104.883 -33.7402 C 108.105 -36.5234 111.67 -37.9395 115.186 -37.9395 C 118.701 -37.9395 122.363 -36.4746 125.488 -33.6426 L 155.322 -6.25 L 155.322 3.27148 C 155.322 9.7168 151.367 13.5742 145.02 13.5742 Z"/>
  </g>
  <g id="Light-L" transform="matrix(1 0 0 1 1063.56 1556)">
   <path d="M 34.0332 21.4355 L 145.117 21.4355 C 157.031 21.4355 163.086 15.2344 163.086 3.56445 L 163.086 -73.8281 C 163.086 -85.5469 157.031 -91.6992 145.117 -91.6992 L 34.0332 -91.6992 C 22.168 -91.6992 16.0645 -85.6445 16.0645 -73.8281 L 16.0645 3.56445 C 16.0645 15.3809 22.168 21.4355 34.0332 21.4355 Z M 60.5957 -34.1309 C 52.1973 -34.1309 45.3613 -40.9668 45.3613 -49.3652 C 45.3613 -57.666 52.1973 -64.5508 60.5957 -64.5508 C 68.8965 -64.5508 75.7324 -57.666 75.7324 -49.3652 C 75.7324 -40.9668 68.8965 -34.1309 60.5957 -34.1309 Z M 33.8867 14.7949 C 26.9043 14.7949 22.7051 10.6445 22.7051 3.56445 L 22.7051 0.439453 L 44.4824 -18.2617 C 47.3633 -20.752 50.3906 -22.1191 53.1738 -22.1191 C 56.25 -22.1191 59.4727 -20.752 62.3535 -18.1152 L 74.0723 -7.42188 L 104.297 -33.8379 C 107.666 -36.7676 111.328 -38.2324 114.795 -38.2324 C 118.359 -38.2324 122.119 -36.7188 125.391 -33.7891 L 156.494 -5.61523 L 156.494 3.66211 C 156.494 10.6445 152.246 14.7949 145.312 14.7949 Z"/>
  </g>
  <g id="Thin-L" transform="matrix(1 0 0 1 767.433 1556)">
   <path d="M 32.666 20.3613 L 145.312 20.3613 C 156.201 20.3613 161.914 14.4531 161.914 3.75977 L 161.914 -73.9746 C 161.914 -84.7168 156.201 -90.5762 145.312 -90.5762 L 32.666 -90.5762 C 21.7773 -90.5762 16.0645 -84.8633 16.0645 -73.9746 L 16.0645 3.75977 C 16.0645 14.6484 21.7773 20.3613 32.666 20.3613 Z M 58.4961 -34.5215 C 50.293 -34.5215 43.5547 -41.2109 43.5547 -49.4629 C 43.5547 -57.6172 50.293 -64.4043 58.4961 -64.4043 C 66.6992 -64.4043 73.3887 -57.6172 73.3887 -49.4629 C 73.3887 -41.2109 66.6992 -34.5215 58.4961 -34.5215 Z M 32.2754 16.4062 C 24.6094 16.4062 19.9707 11.8652 19.9707 4.15039 L 19.9707 1.51367 L 43.6035 -18.5547 C 46.582 -21.0938 49.6094 -22.5098 52.4414 -22.5098 C 55.5176 -22.5098 58.7402 -21.0938 61.6699 -18.4082 L 73.1445 -7.8125 L 103.516 -34.0332 C 107.08 -37.0605 110.84 -38.6719 114.258 -38.6719 C 117.92 -38.6719 121.826 -37.0117 125.293 -33.9355 L 158.008 -4.78516 L 158.008 4.15039 C 158.008 11.8652 153.369 16.4062 145.752 16.4062 Z"/>
  </g>
  <g id="Ultralight-L" transform="matrix(1 0 0 1 471.015 1556)">
   <path d="M 31.9824 19.7754 L 145.41 19.7754 C 155.811 19.7754 161.328 14.0625 161.328 3.85742 L 161.328 -74.0723 C 161.328 -84.2773 155.811 -89.9902 145.41 -89.9902 L 31.9824 -89.9902 C 21.582 -89.9902 16.0645 -84.4727 16.0645 -74.0723 L 16.0645 3.85742 C 16.0645 14.2578 21.582 19.7754 31.9824 19.7754 Z M 57.4707 -34.7168 C 49.2676 -34.7168 42.627 -41.3574 42.627 -49.5117 C 42.627 -57.6172 49.2676 -64.3555 57.4707 -64.3555 C 65.5273 -64.3555 72.168 -57.6172 72.168 -49.5117 C 72.168 -41.3574 65.5273 -34.7168 57.4707 -34.7168 Z M 31.4453 17.2363 C 23.4863 17.2363 18.6035 12.5 18.6035 4.44336 L 18.6035 2.05078 L 43.2129 -18.7012 C 46.1914 -21.2891 49.2676 -22.7539 52.0508 -22.7539 C 55.127 -22.7539 58.3496 -21.2891 61.3281 -18.5059 L 72.7051 -8.00781 L 103.125 -34.082 C 106.787 -37.207 110.596 -38.916 113.965 -38.916 C 117.676 -38.916 121.68 -37.207 125.244 -34.0332 L 158.789 -4.3457 L 158.789 4.44336 C 158.789 12.5 153.955 17.2363 145.947 17.2363 Z"/>
  </g>
  <g id="Black-M" transform="matrix(1 0 0 1 2861.84 1126)">
   <path d="M 31.9824 13.5742 L 111.133 13.5742 C 123.389 13.5742 130.664 6.29883 130.664 -5.95703 L 130.664 -64.4043 C 130.664 -76.6602 123.389 -83.9355 111.133 -83.9355 L 31.9824 -83.9355 C 19.7266 -83.9355 12.4512 -76.6602 12.4512 -64.4043 L 12.4512 -5.95703 C 12.4512 6.29883 19.7266 13.5742 31.9824 13.5742 Z M 57.7637 -35.5469 C 50.7812 -35.5469 45.0195 -41.3086 45.0195 -48.291 C 45.0195 -55.2246 50.7812 -60.9863 57.7637 -60.9863 C 64.6973 -60.9863 70.4102 -55.2246 70.4102 -48.291 C 70.4102 -41.3086 64.6973 -35.5469 57.7637 -35.5469 Z M 35.7422 -4.73633 C 32.666 -4.73633 30.7617 -6.64062 30.7617 -9.7168 L 30.7617 -18.0176 L 38.7695 -25.0488 C 40.8203 -26.8555 42.4316 -27.7344 44.9707 -27.7344 C 47.2168 -27.7344 49.5117 -26.8066 51.5625 -25 L 60.498 -17.041 L 82.373 -36.6211 C 84.5703 -38.5742 87.0117 -39.4531 89.5996 -39.4531 C 92.0898 -39.4531 94.7266 -38.5254 96.7773 -36.5723 L 112.402 -22.168 L 112.402 -9.81445 C 112.402 -6.64062 109.961 -4.73633 107.373 -4.73633 Z"/>
  </g>
  <g id="Heavy-M" transform="matrix(1 0 0 1 2565.5 1126)">
   <path d="M 31.0059 12.6465 L 111.426 12.6465 C 123.193 12.6465 129.932 5.9082 129.932 -5.81055 L 129.932 -64.5508 C 129.932 -76.2695 123.193 -83.0566 111.426 -83.0566 L 31.0059 -83.0566 C 19.2383 -83.0566 12.4512 -76.3184 12.4512 -64.5508 L 12.4512 -5.81055 C 12.4512 5.9082 19.2383 12.6465 31.0059 12.6465 Z M 55.7129 -35.2051 C 48.7793 -35.2051 43.1152 -40.8691 43.1152 -47.7539 C 43.1152 -54.5898 48.7793 -60.3027 55.7129 -60.3027 C 62.5488 -60.3027 68.2129 -54.5898 68.2129 -47.7539 C 68.2129 -40.8691 62.5488 -35.2051 55.7129 -35.2051 Z M 33.8867 -3.17383 C 30.4199 -3.17383 28.2715 -5.32227 28.2715 -8.78906 L 28.2715 -15.8203 L 37.9395 -24.2676 C 40.0391 -26.123 41.7969 -27.002 44.2871 -27.002 C 46.5332 -27.002 48.877 -26.0742 50.9766 -24.2188 L 59.9609 -16.1621 L 82.2266 -35.9863 C 84.4238 -37.9883 86.9141 -38.8672 89.5996 -38.8672 C 92.0898 -38.8672 94.7754 -37.9395 96.875 -35.9375 L 114.111 -20.0684 L 114.111 -8.83789 C 114.111 -5.32227 111.572 -3.17383 108.545 -3.17383 Z"/>
  </g>
  <g id="Bold-M" transform="matrix(1 0 0 1 2269.18 1126)">
   <path d="M 29.8828 11.6699 L 111.719 11.6699 C 122.949 11.6699 129.15 5.46875 129.15 -5.66406 L 129.15 -64.6973 C 129.15 -75.8789 122.949 -82.0312 111.719 -82.0312 L 29.8828 -82.0312 C 18.6523 -82.0312 12.4512 -75.8789 12.4512 -64.6973 L 12.4512 -5.66406 C 12.4512 5.51758 18.6523 11.6699 29.8828 11.6699 Z M 53.418 -34.7656 C 46.582 -34.7656 41.0156 -40.332 41.0156 -47.168 C 41.0156 -53.9062 46.582 -59.5703 53.418 -59.5703 C 60.1562 -59.5703 65.7227 -53.9062 65.7227 -47.168 C 65.7227 -40.332 60.1562 -34.7656 53.418 -34.7656 Z M 31.8359 -1.41602 C 27.9297 -1.41602 25.5371 -3.80859 25.5371 -7.71484 L 25.5371 -13.3301 L 37.0117 -23.4375 C 39.1602 -25.2441 41.1133 -26.1719 43.457 -26.1719 C 45.8008 -26.1719 48.1934 -25.2441 50.293 -23.3398 L 59.4238 -15.1367 L 82.0312 -35.3027 C 84.3262 -37.3535 86.8652 -38.2812 89.5508 -38.2812 C 92.1387 -38.2812 94.8242 -37.3047 97.0215 -35.2539 L 116.064 -17.6758 L 116.064 -7.71484 C 116.064 -3.80859 113.428 -1.41602 109.814 -1.41602 Z"/>
  </g>
  <g id="Semibold-M" transform="matrix(1 0 0 1 1972.76 1126)">
   <path d="M 29.1016 10.9863 L 111.914 10.9863 C 122.803 10.9863 128.564 5.17578 128.564 -5.56641 L 128.564 -64.8438 C 128.564 -75.5859 122.803 -81.3477 111.914 -81.3477 L 29.1016 -81.3477 C 18.2617 -81.3477 12.4512 -75.5859 12.4512 -64.8438 L 12.4512 -5.56641 C 12.4512 5.22461 18.2617 10.9863 29.1016 10.9863 Z M 51.8555 -34.4727 C 45.0684 -34.4727 39.5508 -39.9902 39.5508 -46.7773 C 39.5508 -53.4668 45.0684 -59.0332 51.8555 -59.0332 C 58.5449 -59.0332 64.0625 -53.4668 64.0625 -46.7773 C 64.0625 -39.9902 58.5449 -34.4727 51.8555 -34.4727 Z M 30.3711 -0.195312 C 26.1719 -0.195312 23.6328 -2.73438 23.6328 -6.98242 L 23.6328 -11.6699 L 36.377 -22.8027 C 38.5254 -24.707 40.625 -25.6348 42.9199 -25.6348 C 45.2637 -25.6348 47.7051 -24.6582 49.8047 -22.7539 L 58.9844 -14.502 L 81.8848 -34.8145 C 84.2285 -36.8652 86.8164 -37.8418 89.5508 -37.8418 C 92.1387 -37.8418 94.873 -36.8164 97.1191 -34.7656 L 117.383 -16.0156 L 117.383 -6.93359 C 117.383 -2.73438 114.648 -0.195312 110.693 -0.195312 Z"/>
  </g>
  <g id="Medium-M" transform="matrix(1 0 0 1 1676.24 1126)">
   <path d="M 28.5156 10.4492 L 112.061 10.4492 C 122.656 10.4492 128.174 4.98047 128.174 -5.46875 L 128.174 -64.8926 C 128.174 -75.3418 122.656 -80.8105 112.061 -80.8105 L 28.5156 -80.8105 C 17.9688 -80.8105 12.4512 -75.3906 12.4512 -64.8926 L 12.4512 -5.46875 C 12.4512 4.98047 17.9688 10.4492 28.5156 10.4492 Z M 50.6348 -34.2773 C 43.9453 -34.2773 38.4277 -39.7461 38.4277 -46.4355 C 38.4277 -53.0762 43.9453 -58.6426 50.6348 -58.6426 C 57.2754 -58.6426 62.7441 -53.0762 62.7441 -46.4355 C 62.7441 -39.7461 57.2754 -34.2773 50.6348 -34.2773 Z M 29.2969 0.732422 C 24.8535 0.732422 22.168 -1.95312 22.168 -6.44531 L 22.168 -10.3516 L 35.9375 -22.3633 C 38.0859 -24.2676 40.2344 -25.1953 42.5293 -25.1953 C 44.873 -25.1953 47.3145 -24.2188 49.4629 -22.3145 L 58.6914 -13.9648 L 81.7871 -34.4727 C 84.1309 -36.5723 86.7676 -37.5488 89.502 -37.5488 C 92.1387 -37.5488 94.9219 -36.5234 97.168 -34.375 L 118.408 -14.7461 L 118.408 -6.39648 C 118.408 -1.95312 115.625 0.732422 111.328 0.732422 Z"/>
  </g>
  <g id="Regular-M" transform="matrix(1 0 0 1 1379.82 1126)">
   <path d="M 27.7832 9.76562 L 112.256 9.76562 C 122.51 9.76562 127.588 4.6875 127.588 -5.37109 L 127.588 -64.9902 C 127.588 -75.0488 122.51 -80.127 112.256 -80.127 L 27.7832 -80.127 C 17.5781 -80.127 12.4512 -75.0977 12.4512 -64.9902 L 12.4512 -5.37109 C 12.4512 4.73633 17.5781 9.76562 27.7832 9.76562 Z M 49.0723 -33.9844 C 42.4316 -33.9844 37.0117 -39.4043 37.0117 -46.0449 C 37.0117 -52.6367 42.4316 -58.1055 49.0723 -58.1055 C 55.6641 -58.1055 61.084 -52.6367 61.084 -46.0449 C 61.084 -39.4043 55.6641 -33.9844 49.0723 -33.9844 Z M 27.8809 1.9043 C 23.1445 1.9043 20.3125 -0.927734 20.3125 -5.71289 L 20.3125 -8.69141 L 35.3027 -21.7773 C 37.4512 -23.6816 39.7949 -24.6582 41.9434 -24.6582 C 44.3359 -24.6582 46.8262 -23.6816 48.9746 -21.6797 L 58.3008 -13.2812 L 81.6406 -33.9844 C 84.0332 -36.1328 86.7188 -37.1094 89.502 -37.1094 C 92.1875 -37.1094 94.9707 -36.084 97.2656 -33.9355 L 119.727 -13.1348 L 119.727 -5.61523 C 119.727 -0.927734 116.846 1.9043 112.207 1.9043 Z"/>
  </g>
  <g id="Light-M" transform="matrix(1 0 0 1 1083.5 1126)">
   <path d="M 26.8555 9.0332 L 112.402 9.0332 C 121.973 9.0332 126.807 4.15039 126.807 -5.22461 L 126.807 -65.0879 C 126.807 -74.5117 121.973 -79.3945 112.402 -79.3945 L 26.8555 -79.3945 C 17.334 -79.3945 12.4512 -74.5605 12.4512 -65.0879 L 12.4512 -5.22461 C 12.4512 4.19922 17.334 9.0332 26.8555 9.0332 Z M 47.6562 -34.2285 C 41.1133 -34.2285 35.791 -39.5996 35.791 -46.1426 C 35.791 -52.6367 41.1133 -58.0078 47.6562 -58.0078 C 54.1504 -58.0078 59.4727 -52.6367 59.4727 -46.1426 C 59.4727 -39.5996 54.1504 -34.2285 47.6562 -34.2285 Z M 26.8066 2.97852 C 21.6309 2.97852 18.5059 -0.0976562 18.5059 -5.32227 L 18.5059 -7.95898 L 34.7168 -21.9727 C 36.9629 -23.9258 39.3066 -24.9512 41.4551 -24.9512 C 43.8477 -24.9512 46.3379 -23.9258 48.5352 -21.875 L 57.7148 -13.5742 L 81.1035 -34.082 C 83.6426 -36.3281 86.4258 -37.4023 89.1113 -37.4023 C 91.8945 -37.4023 94.7754 -36.2793 97.2168 -34.0332 L 120.752 -12.5488 L 120.752 -5.27344 C 120.752 -0.0976562 117.627 2.97852 112.5 2.97852 Z"/>
  </g>
  <g id="Thin-M" transform="matrix(1 0 0 1 787.33 1126)">
   <path d="M 25.6348 8.05664 L 112.598 8.05664 C 121.24 8.05664 125.732 3.4668 125.732 -5.0293 L 125.732 -65.2344 C 125.732 -73.7305 121.24 -78.3691 112.598 -78.3691 L 25.6348 -78.3691 C 16.9922 -78.3691 12.4512 -73.877 12.4512 -65.2344 L 12.4512 -5.0293 C 12.4512 3.56445 16.9922 8.05664 25.6348 8.05664 Z M 45.8008 -34.6191 C 39.3555 -34.6191 34.1309 -39.8438 34.1309 -46.2402 C 34.1309 -52.5879 39.3555 -57.8613 45.8008 -57.8613 C 52.1484 -57.8613 57.373 -52.5879 57.373 -46.2402 C 57.373 -39.8438 52.1484 -34.6191 45.8008 -34.6191 Z M 25.3418 4.44336 C 19.5801 4.44336 16.0645 0.976562 16.0645 -4.83398 L 16.0645 -6.98242 L 33.9844 -22.2168 C 36.2793 -24.2188 38.623 -25.293 40.8203 -25.293 C 43.1641 -25.293 45.6543 -24.2188 47.9492 -22.1191 L 56.8848 -13.916 L 80.4199 -34.2773 C 83.1055 -36.5723 85.9863 -37.793 88.6719 -37.793 C 91.4551 -37.793 94.4824 -36.5723 97.1191 -34.1797 L 122.119 -11.8164 L 122.119 -4.83398 C 122.119 0.976562 118.604 4.44336 112.891 4.44336 Z"/>
  </g>
  <g id="Ultralight-M" transform="matrix(1 0 0 1 490.888 1126)">
   <path d="M 25 7.56836 L 112.695 7.56836 C 120.85 7.56836 125.195 3.125 125.195 -4.98047 L 125.195 -65.2832 C 125.195 -73.3887 120.85 -77.832 112.695 -77.832 L 25 -77.832 C 16.7969 -77.832 12.4512 -73.4863 12.4512 -65.2832 L 12.4512 -4.98047 C 12.4512 3.22266 16.7969 7.56836 25 7.56836 Z M 44.8242 -34.7656 C 38.4766 -34.7656 33.3008 -39.9414 33.3008 -46.2891 C 33.3008 -52.5879 38.4766 -57.8125 44.8242 -57.8125 C 51.123 -57.8125 56.2988 -52.5879 56.2988 -46.2891 C 56.2988 -39.9414 51.123 -34.7656 44.8242 -34.7656 Z M 24.6094 5.17578 C 18.5547 5.17578 14.8438 1.5625 14.8438 -4.58984 L 14.8438 -6.49414 L 33.5938 -22.3633 C 35.9375 -24.3652 38.2812 -25.4883 40.4785 -25.4883 C 42.8223 -25.4883 45.3125 -24.3652 47.6562 -22.2656 L 56.4941 -14.0625 L 80.0293 -34.3262 C 82.8613 -36.7188 85.791 -38.0371 88.4277 -38.0371 C 91.2598 -38.0371 94.3359 -36.7188 97.0703 -34.2773 L 122.803 -11.4258 L 122.803 -4.58984 C 122.803 1.5625 119.141 5.17578 113.037 5.17578 Z"/>
  </g>
  <g id="Black-S" transform="matrix(1 0 0 1 2877.35 696)">
   <path d="M 25 2.92969 L 87.1094 2.92969 C 96.6797 2.92969 102.344 -2.73438 102.344 -12.3047 L 102.344 -58.1055 C 102.344 -67.6758 96.6797 -73.3398 87.1094 -73.3398 L 25 -73.3398 C 15.4297 -73.3398 9.76562 -67.6758 9.76562 -58.1055 L 9.76562 -12.3047 C 9.76562 -2.73438 15.4297 2.92969 25 2.92969 Z M 45.1172 -35.4492 C 39.6484 -35.4492 35.1562 -39.9414 35.1562 -45.4102 C 35.1562 -50.8301 39.6484 -55.3711 45.1172 -55.3711 C 50.5371 -55.3711 55.0293 -50.8301 55.0293 -45.4102 C 55.0293 -39.9414 50.5371 -35.4492 45.1172 -35.4492 Z M 27.8809 -11.2305 C 25.4395 -11.2305 23.9258 -12.7441 23.9258 -15.1855 L 23.9258 -21.582 L 30.3223 -27.1973 C 31.9336 -28.6133 33.2031 -29.2969 35.2051 -29.2969 C 36.9629 -29.2969 38.7695 -28.5645 40.3809 -27.1484 L 47.3633 -20.8984 L 64.5508 -36.2793 C 66.2598 -37.793 68.1641 -38.4766 70.2148 -38.4766 C 72.168 -38.4766 74.2188 -37.7441 75.8301 -36.2305 L 88.1836 -24.8535 L 88.1836 -15.2344 C 88.1836 -12.7441 86.2793 -11.2305 84.2285 -11.2305 Z"/>
  </g>
  <g id="Heavy-S" transform="matrix(1 0 0 1 2580.88 696)">
   <path d="M 24.3652 2.34375 L 87.3047 2.34375 C 96.582 2.34375 101.855 -2.97852 101.855 -12.207 L 101.855 -58.2031 C 101.855 -67.4316 96.582 -72.7539 87.3047 -72.7539 L 24.3652 -72.7539 C 15.0879 -72.7539 9.76562 -67.4316 9.76562 -58.2031 L 9.76562 -12.207 C 9.76562 -2.97852 15.0879 2.34375 24.3652 2.34375 Z M 43.7012 -35.1562 C 38.2812 -35.1562 33.8379 -39.5996 33.8379 -45.0195 C 33.8379 -50.3906 38.2812 -54.8828 43.7012 -54.8828 C 49.0723 -54.8828 53.5156 -50.3906 53.5156 -45.0195 C 53.5156 -39.5996 49.0723 -35.1562 43.7012 -35.1562 Z M 26.5625 -10.1562 C 23.877 -10.1562 22.2656 -11.8164 22.2656 -14.502 L 22.2656 -19.9707 L 29.7363 -26.5625 C 31.3965 -28.0273 32.7637 -28.7109 34.7168 -28.7109 C 36.4746 -28.7109 38.3301 -27.9785 39.9414 -26.5137 L 47.0215 -20.2148 L 64.4531 -35.791 C 66.2109 -37.3047 68.1641 -38.0371 70.2148 -38.0371 C 72.2168 -38.0371 74.2676 -37.2559 75.9277 -35.7422 L 89.4043 -23.291 L 89.4043 -14.502 C 89.4043 -11.8164 87.4512 -10.1562 85.0586 -10.1562 Z"/>
  </g>
  <g id="Bold-S" transform="matrix(1 0 0 1 2284.41 696)">
   <path d="M 23.6328 1.66016 L 87.5 1.66016 C 96.4844 1.66016 101.367 -3.22266 101.367 -12.1094 L 101.367 -58.3008 C 101.367 -67.1875 96.4844 -72.0703 87.5 -72.0703 L 23.6328 -72.0703 C 14.6973 -72.0703 9.76562 -67.1875 9.76562 -58.3008 L 9.76562 -12.1094 C 9.76562 -3.22266 14.6973 1.66016 23.6328 1.66016 Z M 42.1387 -34.7656 C 36.7676 -34.7656 32.373 -39.1602 32.373 -44.5312 C 32.373 -49.8535 36.7676 -54.2969 42.1387 -54.2969 C 47.4609 -54.2969 51.8066 -49.8535 51.8066 -44.5312 C 51.8066 -39.1602 47.4609 -34.7656 42.1387 -34.7656 Z M 25.1465 -8.93555 C 22.168 -8.93555 20.3613 -10.7422 20.3613 -13.7207 L 20.3613 -18.1641 L 29.1504 -25.8789 C 30.7617 -27.3438 32.3242 -28.0273 34.1797 -28.0273 C 35.9863 -28.0273 37.8418 -27.2949 39.502 -25.8301 L 46.6797 -19.3848 L 64.4043 -35.2539 C 66.1621 -36.8164 68.1641 -37.5 70.2637 -37.5 C 72.2656 -37.5 74.3652 -36.7676 76.0254 -35.2051 L 90.7715 -21.5332 L 90.7715 -13.7207 C 90.7715 -10.7422 88.7207 -8.93555 85.9863 -8.93555 Z"/>
  </g>
  <g id="Semibold-S" transform="matrix(1 0 0 1 1987.9 696)">
   <path d="M 23.0957 1.17188 L 87.6465 1.17188 C 96.3867 1.17188 100.977 -3.36914 100.977 -12.0117 L 100.977 -58.3984 C 100.977 -67.041 96.3867 -71.582 87.6465 -71.582 L 23.0957 -71.582 C 14.4043 -71.582 9.76562 -67.041 9.76562 -58.3984 L 9.76562 -12.0117 C 9.76562 -3.36914 14.4043 1.17188 23.0957 1.17188 Z M 41.0156 -34.5215 C 35.6934 -34.5215 31.3477 -38.916 31.3477 -44.2383 C 31.3477 -49.5117 35.6934 -53.9062 41.0156 -53.9062 C 46.3379 -53.9062 50.6836 -49.5117 50.6836 -44.2383 C 50.6836 -38.916 46.3379 -34.5215 41.0156 -34.5215 Z M 24.1211 -8.10547 C 20.9961 -8.10547 19.0918 -10.0098 19.0918 -13.2324 L 19.0918 -16.9434 L 28.7109 -25.4395 C 30.3711 -26.8555 31.9824 -27.5879 33.7891 -27.5879 C 35.5957 -27.5879 37.5 -26.8555 39.1602 -25.3906 L 46.4355 -18.8477 L 64.3066 -34.8633 C 66.1133 -36.4258 68.1152 -37.1582 70.2637 -37.1582 C 72.3145 -37.1582 74.4141 -36.4258 76.123 -34.8145 L 91.6992 -20.3125 L 91.6992 -13.1836 C 91.6992 -10.0098 89.5996 -8.10547 86.6699 -8.10547 Z"/>
  </g>
  <g id="Medium-S" transform="matrix(1 0 0 1 1691.31 696)">
   <path d="M 22.7051 0.830078 L 87.7441 0.830078 C 96.3379 0.830078 100.732 -3.51562 100.732 -11.9629 L 100.732 -58.4473 C 100.732 -66.8945 96.3379 -71.2402 87.7441 -71.2402 L 22.7051 -71.2402 C 14.209 -71.2402 9.76562 -66.8945 9.76562 -58.4473 L 9.76562 -11.9629 C 9.76562 -3.51562 14.209 0.830078 22.7051 0.830078 Z M 40.2344 -34.375 C 34.9121 -34.375 30.6152 -38.6719 30.6152 -43.9941 C 30.6152 -49.2188 34.9121 -53.6133 40.2344 -53.6133 C 45.459 -53.6133 49.8047 -49.2188 49.8047 -43.9941 C 49.8047 -38.6719 45.459 -34.375 40.2344 -34.375 Z M 23.3887 -7.4707 C 20.0684 -7.4707 18.0664 -9.47266 18.0664 -12.793 L 18.0664 -16.0156 L 28.3691 -25.0488 C 30.0293 -26.5137 31.7383 -27.2461 33.4961 -27.2461 C 35.3516 -27.2461 37.2559 -26.5137 38.916 -25 L 46.2402 -18.457 L 64.3066 -34.5703 C 66.1133 -36.1816 68.1152 -36.9141 70.3125 -36.9141 C 72.3145 -36.9141 74.4629 -36.1328 76.1719 -34.5215 L 92.3828 -19.3848 L 92.3828 -12.7441 C 92.3828 -9.47266 90.2832 -7.4707 87.1582 -7.4707 Z"/>
  </g>
  <g id="Regular-S" transform="matrix(1 0 0 1 1394.79 696)">
   <path d="M 22.2168 0.390625 L 87.8906 0.390625 C 96.2402 0.390625 100.342 -3.71094 100.342 -11.9141 L 100.342 -58.4961 C 100.342 -66.6992 96.2402 -70.8008 87.8906 -70.8008 L 22.2168 -70.8008 C 13.916 -70.8008 9.76562 -66.6992 9.76562 -58.4961 L 9.76562 -11.9141 C 9.76562 -3.71094 13.916 0.390625 22.2168 0.390625 Z M 39.1602 -34.1309 C 33.8867 -34.1309 29.5898 -38.4277 29.5898 -43.6523 C 29.5898 -48.877 33.8867 -53.2227 39.1602 -53.2227 C 44.3359 -53.2227 48.6328 -48.877 48.6328 -43.6523 C 48.6328 -38.4277 44.3359 -34.1309 39.1602 -34.1309 Z M 22.4121 -6.68945 C 18.8965 -6.68945 16.7969 -8.74023 16.7969 -12.3047 L 16.7969 -14.7949 L 27.9297 -24.6094 C 29.5898 -26.0742 31.3965 -26.8066 33.1055 -26.8066 C 34.9609 -26.8066 36.9141 -26.0742 38.623 -24.5605 L 45.9961 -17.9199 L 64.209 -34.1797 C 66.0645 -35.8398 68.1152 -36.5723 70.3125 -36.5723 C 72.3633 -36.5723 74.5117 -35.791 76.2695 -34.1309 L 93.3105 -18.1641 L 93.3105 -12.207 C 93.3105 -8.74023 91.1621 -6.68945 87.793 -6.68945 Z"/>
  </g>
  <g id="Light-S" transform="matrix(1 0 0 1 1098.42 696)">
   <path d="M 21.3867 -0.292969 L 88.0371 -0.292969 C 95.752 -0.292969 99.6582 -4.15039 99.6582 -11.7676 L 99.6582 -58.5938 C 99.6582 -66.2109 95.752 -70.1172 88.0371 -70.1172 L 21.3867 -70.1172 C 13.6719 -70.1172 9.76562 -66.2598 9.76562 -58.5938 L 9.76562 -11.7676 C 9.76562 -4.15039 13.6719 -0.292969 21.3867 -0.292969 Z M 37.8906 -34.375 C 32.7148 -34.375 28.5156 -38.5742 28.5156 -43.75 C 28.5156 -48.877 32.7148 -53.125 37.8906 -53.125 C 43.0176 -53.125 47.2168 -48.877 47.2168 -43.75 C 47.2168 -38.5742 43.0176 -34.375 37.8906 -34.375 Z M 21.4355 -5.71289 C 17.5293 -5.71289 15.1855 -8.00781 15.1855 -11.9629 L 15.1855 -14.1113 L 27.4414 -24.7559 C 29.1504 -26.2695 30.957 -27.0508 32.666 -27.0508 C 34.5215 -27.0508 36.4746 -26.2695 38.1836 -24.707 L 45.459 -18.1641 L 63.7695 -34.2773 C 65.7227 -35.9863 67.8223 -36.8164 69.9707 -36.8164 C 72.1191 -36.8164 74.3164 -35.9863 76.2207 -34.2285 L 94.2383 -17.6758 L 94.2383 -11.9141 C 94.2383 -8.00781 91.8457 -5.71289 88.0371 -5.71289 Z"/>
  </g>
  <g id="Thin-S" transform="matrix(1 0 0 1 802.174 696)">
   <path d="M 20.3125 -1.12305 L 88.1836 -1.12305 C 95.1172 -1.12305 98.7305 -4.78516 98.7305 -11.6211 L 98.7305 -58.6914 C 98.7305 -65.5762 95.1172 -69.2383 88.1836 -69.2383 L 20.3125 -69.2383 C 13.3789 -69.2383 9.76562 -65.625 9.76562 -58.6914 L 9.76562 -11.6211 C 9.76562 -4.6875 13.3789 -1.12305 20.3125 -1.12305 Z M 36.2305 -34.668 C 31.2012 -34.668 27.0996 -38.7695 27.0996 -43.8477 C 27.0996 -48.8281 31.2012 -53.0273 36.2305 -53.0273 C 41.2598 -53.0273 45.3613 -48.8281 45.3613 -43.8477 C 45.3613 -38.7695 41.2598 -34.668 36.2305 -34.668 Z M 20.166 -4.44336 C 15.7227 -4.44336 13.0859 -7.08008 13.0859 -11.5234 L 13.0859 -13.2812 L 26.8066 -25 C 28.5645 -26.5137 30.4199 -27.3926 32.1289 -27.3926 C 33.9844 -27.3926 35.9375 -26.5137 37.6953 -24.9023 L 44.7266 -18.457 L 63.1348 -34.4238 C 65.2344 -36.2305 67.4805 -37.1582 69.5801 -37.1582 C 71.7773 -37.1582 74.0723 -36.2305 76.123 -34.375 L 95.4102 -17.041 L 95.4102 -11.4746 C 95.4102 -7.08008 92.7246 -4.44336 88.3789 -4.44336 Z"/>
  </g>
  <g id="Ultralight-S" transform="matrix(1 0 0 1 505.707 696)">
   <path d="M 19.7754 -1.5625 L 88.2812 -1.5625 C 94.8242 -1.5625 98.2422 -5.12695 98.2422 -11.5234 L 98.2422 -58.7891 C 98.2422 -65.2344 94.8242 -68.75 88.2812 -68.75 L 19.7754 -68.75 C 13.2324 -68.75 9.76562 -65.2832 9.76562 -58.7891 L 9.76562 -11.5234 C 9.76562 -5.0293 13.2324 -1.5625 19.7754 -1.5625 Z M 35.4004 -34.8145 C 30.4199 -34.8145 26.3184 -38.8672 26.3184 -43.8965 C 26.3184 -48.8281 30.4199 -52.9297 35.4004 -52.9297 C 40.332 -52.9297 44.3848 -48.8281 44.3848 -43.8965 C 44.3848 -38.8672 40.332 -34.8145 35.4004 -34.8145 Z M 19.4824 -3.75977 C 14.7949 -3.75977 11.9629 -6.54297 11.9629 -11.2793 L 11.9629 -12.8418 L 26.4648 -25.0977 C 28.2227 -26.6602 30.0781 -27.5391 31.7871 -27.5391 C 33.6426 -27.5391 35.5957 -26.6602 37.4023 -25 L 44.3848 -18.6035 L 62.793 -34.5215 C 64.9902 -36.3281 67.2852 -37.3535 69.3359 -37.3535 C 71.582 -37.3535 73.9746 -36.3281 76.0742 -34.4727 L 96.0449 -16.6992 L 96.0449 -11.2793 C 96.0449 -6.54297 93.2129 -3.75977 88.5254 -3.75977 Z"/>
  </g>
 </g>
</svg>
